<?xml version="1.0" encoding="utf-8"?>
<!-- Generator: Adobe Illustrator 24.0.0, SVG Export Plug-In . SVG Version: 6.00 Build 0)  -->
<svg version="1.1" id="Layer_1" xmlns="http://www.w3.org/2000/svg" xmlns:xlink="http://www.w3.org/1999/xlink" x="0px" y="0px"
	 viewBox="0 0 58 74" style="enable-background:new 0 0 58 74;" xml:space="preserve">
<style type="text/css">
	.st0{fill:#2458A7;}
</style>
<g>
	<path class="st0" d="M15.28,10.3c-0.79,0.74-1.51,1.43-2.23,2.11c-1.96,1.85-3.95,3.68-5.87,5.57c-0.56,0.55-0.95,1.29-1.39,1.96
		c-0.06,0.09,0.03,0.33,0.12,0.44c2.25,2.67,4.5,5.33,6.76,7.99c0.4,0.48,0.85,0.91,1.25,1.39c0.35,0.42,0.68,0.45,1.16,0.18
		c1.93-1.11,3.88-2.17,5.81-3.27c2.72-1.55,5.73-2.32,8.69-3.21c1.67-0.5,3.37-0.93,5.05-1.4c0.86-0.24,1.56-0.02,2.32,0.46
		c2.57,1.62,5.2,3.17,7.82,4.72c0.19,0.11,0.56,0.09,0.75-0.03c2.32-1.42,4.87-2.3,7.43-3.18c0.31-0.11,0.64-0.3,0.85-0.54
		c0.89-1.02,2.14-1.29,3.13-0.61c1.05,0.72,1.45,2.26,0.68,3.29c-0.45,0.61-1.14,1.14-1.83,1.46c-1.22,0.56-2.53,0.94-3.79,1.4
		c-1.84,0.67-3.61,1.46-5.17,2.67c-0.79,0.61-1.67,0.67-2.54,0.22c-1.8-0.93-3.58-1.89-5.37-2.84c-0.19-0.1-0.4-0.18-0.75-0.34
		c0.12,0.66,0.27,1.18,0.31,1.71c0.27,3.42,0.59,6.83,0.76,10.26c0.22,4.63,0.31,9.26,0.46,13.9c0.04,1.07-0.45,1.8-1.33,2.41
		c-2.93,2.04-5.82,4.13-8.7,6.24c-0.62,0.45-1.11,1.07-1.63,1.64c-0.16,0.17-0.28,0.42-0.34,0.65c-0.34,1.38-1.4,2.22-2.54,1.98
		c-1.35-0.29-2.1-1.44-1.86-2.87c0.04-0.23,0.09-0.45-0.03-0.76c-0.31,0.34-0.64,0.67-0.94,1.02c-1.55,1.83-3.12,3.64-4.62,5.5
		c-0.52,0.65-0.89,1.42-1.25,2.18c-0.48,1.04-1.58,1.63-2.63,1.32c-1.18-0.35-1.95-1.51-1.61-2.65c0.24-0.8,0.57-1.63,1.08-2.27
		c2.36-2.93,4.77-5.83,7.23-8.68c1.53-1.78,3.17-3.46,4.79-5.16c0.53-0.56,0.93-1.13,1.02-1.92c0.31-2.94,0.76-5.86,0.94-8.8
		c0.09-1.49-0.29-3-0.44-4.5c-0.2-2.05-0.3-4.12-0.6-6.15c-0.17-1.16-0.62-2.28-0.98-3.41c-0.21-0.66-0.66-0.72-1.24-0.4
		c-1.81,1.02-3.61,2.04-5.44,3.03c-1.05,0.57-2.13,1.1-3.22,1.59c-0.96,0.44-1.97,0.41-2.76-0.29c-1.29-1.13-2.57-2.29-3.69-3.58
		c-1.69-1.93-3.23-4-4.86-5.98c-0.82-1-1.28-1.03-2.46-0.52c-0.26,0.11-0.74,0.02-0.96-0.17c-0.37-0.31-0.87-0.64-0.52-1.31
		c0.27-0.53,0.46-1.11,0.66-1.68c0.32-0.94,1.41-1.66,2.57-1.79c0.43-0.05,0.88-0.23,1.26-0.46c3.74-2.19,6.41-5.58,9.64-8.36
		c0.45-0.39,0.62-0.69,0.31-1.31c-0.73-1.44-0.45-2.9,0.15-4.32C15.9,2,18.86-0.09,21.6,0c2.53,0.09,4.08,2.09,3.71,4.51
		c-0.53,3.43-2.58,5.65-5.92,6.6C17.97,11.51,16.56,11.34,15.28,10.3z M21.38,0.93c-3.16,0.01-6.48,3.47-6.33,6.6
		c0.09,1.79,1.49,3.03,3.24,2.87c2.99-0.28,5.74-2.9,6.15-5.87C24.74,2.44,23.45,0.92,21.38,0.93z M28.72,58.22
		c0.25-0.15,0.41-0.24,0.56-0.34c1.81-1.25,3.6-2.53,5.42-3.75c0.45-0.3,0.63-0.63,0.6-1.16c-0.16-3.05-0.32-6.1-0.45-9.16
		c-0.03-0.69-0.18-1.05-0.98-0.77c-0.44,0.15-0.93,0.17-1.4,0.23c-0.49,0.07-0.73,0.28-0.72,0.83c0.04,3.09-0.4,6.14-0.92,9.18
		c-0.29,1.71-0.46,3.48-2.02,4.64C28.76,57.95,28.77,58.04,28.72,58.22z"/>
	<path class="st0" d="M26.07,22.5c-3.47-0.05-6.23-2.78-6.21-6.16c0.02-3.57,2.86-6.27,6.58-6.17c3.26,0.08,6.02,2.96,5.9,6.46
		C32.23,19.85,29.41,22.54,26.07,22.5z"/>
	<path class="st0" d="M51,10.27c0.04,1.13,0.11,2.11,0.09,3.09c-0.01,0.44-0.9,0.7-1.18,0.37c-0.54-0.62-1.05-1.27-1.51-1.95
		c-0.07-0.1,0.09-0.52,0.23-0.59C49.32,10.87,50.06,10.63,51,10.27z"/>
	<path class="st0" d="M51.42,13.96c-0.37,0.85-0.45,0.87-1.04,0.37C50.71,14.21,50.98,14.11,51.42,13.96z"/>
</g>
</svg>
