<?xml version="1.0" encoding="utf-8"?>
<!-- Generator: Adobe Illustrator 24.0.0, SVG Export Plug-In . SVG Version: 6.00 Build 0)  -->
<svg version="1.1" id="Layer_1" xmlns="http://www.w3.org/2000/svg" xmlns:xlink="http://www.w3.org/1999/xlink" x="0px" y="0px"
	 viewBox="0 0 58 74" style="enable-background:new 0 0 58 74;" xml:space="preserve">
<style type="text/css">
	.st0{fill:#2458A7;}
</style>
<g>
	<path class="st0" d="M0.04,26c0.23-0.17,0.39-0.3,0.56-0.42C9.9,19.21,19.2,12.84,28.49,6.46c0.38-0.26,0.64-0.28,1.03-0.01
		c9.27,6.37,18.55,12.73,27.83,19.09c0.19,0.13,0.37,0.27,0.62,0.46c-0.25,0.19-0.43,0.33-0.62,0.46
		c-9.26,6.35-18.53,12.7-27.79,19.06c-0.39,0.27-0.66,0.31-1.08,0.02C19.21,39.16,9.93,32.8,0.65,26.44
		C0.46,26.31,0.28,26.17,0.04,26z"/>
	<path class="st0" d="M54.69,44.49c1.1,1.15,2.19,2.29,3.32,3.47c-0.18,0.14-0.32,0.27-0.48,0.37
		c-9.34,6.41-18.69,12.81-28.03,19.23c-0.37,0.25-0.61,0.25-0.97,0c-9.32-6.4-18.65-12.8-27.98-19.19C0.38,48.26,0.23,48.14,0.03,48
		c0.14-0.17,0.24-0.31,0.35-0.43c0.7-0.74,1.41-1.47,2.12-2.2c0.79-0.82,0.79-0.82,1.72-0.21c8.07,5.32,16.14,10.64,24.2,15.98
		c0.45,0.3,0.75,0.29,1.19-0.01c8.16-5.44,16.33-10.86,24.49-16.28C54.28,44.74,54.46,44.63,54.69,44.49z"/>
	<path class="st0" d="M0.01,36.96c1.1-1.14,2.16-2.25,3.27-3.4c0.19,0.12,0.37,0.23,0.55,0.34c8.18,5.4,16.36,10.79,24.54,16.21
		c0.48,0.32,0.8,0.33,1.28,0.01c8.14-5.43,16.29-10.84,24.43-16.27c0.48-0.32,0.74-0.28,1.12,0.13c0.9,1,1.85,1.96,2.81,2.97
		c-0.16,0.13-0.27,0.23-0.39,0.31c-9.39,6.44-18.78,12.88-28.17,19.33c-0.33,0.23-0.55,0.21-0.87-0.01
		C19.2,50.15,9.82,43.73,0.44,37.3C0.3,37.2,0.17,37.09,0.01,36.96z"/>
</g>
</svg>
