<?xml version="1.0" encoding="utf-8"?>
<!-- Generator: Adobe Illustrator 24.0.0, SVG Export Plug-In . SVG Version: 6.00 Build 0)  -->
<svg version="1.1" id="Layer_1" xmlns="http://www.w3.org/2000/svg" xmlns:xlink="http://www.w3.org/1999/xlink" x="0px" y="0px"
	 viewBox="0 0 58 74" style="enable-background:new 0 0 58 74;" xml:space="preserve">
<style type="text/css">
	.st0{fill:#2458A7;}
</style>
<g>
	<path class="st0" d="M8.86,24.96c1.81,0.85,3.46,1.8,5.22,2.38c0.86,0.28,1.95-0.07,2.92-0.23c1.81-0.3,3.6-0.66,5.4-1
		c0.16-0.03,0.3-0.12,0.53-0.21c-0.21-0.23-0.36-0.41-0.52-0.58c-3.26-3.45-2.63-9.05,1.33-11.71c4.6-3.08,11.01-0.37,11.82,5.08
		c0.18,1.22,0.57,1.94,1.8,2.13c0.16,0.03,0.31,0.12,0.46,0.21c0.44,0.28,0.56,0.76,0.29,1.12c-0.19,0.26-0.71,0.5-1,0.43
		c-0.93-0.24-1.82-0.64-2.73-0.96c-1.93-0.66-4.31-0.01-5.66,1.66c1.04,0.42,2,0.89,3.01,1.19c0.65,0.19,1.38,0.13,2.06,0.22
		c0.29,0.04,0.68,0.11,0.81,0.31c0.13,0.2,0.08,0.63-0.06,0.86c-0.84,1.41-2,2.41-3.69,2.66c-0.17,0.02-0.33,0.07-0.5,0.11
		c-0.06,0.02-0.12,0.06-0.08,0.04c1.62,4.6,2.22,9.4,3.26,14.09c0.53,2.39,1.19,4.69,2.29,6.9c3.01,6.06,5.9,12.17,8.84,18.26
		c0.42,0.87,0.79,1.74,0.56,2.77c-0.35,1.65-1.36,2.63-2.95,3.03c-1.4,0.35-2.96-0.29-3.81-1.67c-1.09-1.77-2.08-3.6-3.09-5.41
		c-2.17-3.85-4.33-7.71-6.49-11.57c-0.54-0.96-1.75-1.04-2.39-0.16c-0.6,0.82-1.49,1.6-1.66,2.5c-0.16,0.9,0.41,1.94,0.68,2.92
		c0.84,3.04,1.74,6.07,2.54,9.13c0.5,1.91-0.58,3.74-2.43,4.35c-1.85,0.61-3.86-0.28-4.59-2.14c-0.6-1.52-1.11-3.09-1.64-4.64
		c-1.01-2.89-1.97-5.8-3.03-8.68c-0.57-1.54-0.39-2.92,0.47-4.27c1.18-1.85,2.36-3.71,3.49-5.6c0.22-0.37,0.33-0.91,0.26-1.33
		c-0.28-1.64-0.67-3.26-0.99-4.89c-0.1-0.5-0.34-0.57-0.82-0.52c-2.18,0.21-4.37,0.38-6.56,0.52c-1.51,0.1-2.94-0.32-4.06-1.28
		c-2.56-2.17-5.11-4.37-7.49-6.73c-1.69-1.67-0.62-4.48,1.73-4.96c0.75-0.15,1.16-0.79,0.99-1.52c-0.49-2.05,0.96-3.89,3.08-3.82
		c0.66,0.02,1.07-0.19,1.48-0.67c6.43-7.49,12.87-14.96,19.3-22.44c0.02-0.02,0.03-0.04,0.05-0.06C27.6,0.52,27.92,0.26,28.25,0
		c0.32,0.51,0.82,0.99,0.92,1.55c0.27,1.47-0.39,2.79-1.18,3.93c-1.32,1.9-2.63,3.85-4.24,5.5c-2.91,3-6.02,5.81-9.08,8.66
		c-1.71,1.6-3.49,3.13-5.24,4.7C9.29,24.48,9.15,24.64,8.86,24.96z M5.84,30.51c-0.05,0.07-0.1,0.13-0.15,0.2
		c2,1.5,4,3.01,6.01,4.49c0.15,0.11,0.42,0.14,0.62,0.11c1.67-0.21,3.34-0.44,5.01-0.67c0.18-0.03,0.35-0.14,0.52-0.22
		c-2.17-0.23-4.38,0.22-6.37-0.74C9.54,32.76,7.72,31.58,5.84,30.51z M32.44,26.21c-1.39-0.57-2.8-1.16-4.22-1.71
		c-0.11-0.04-0.39,0.11-0.47,0.24c-0.67,1.18-0.52,1.59,0.72,2.11c0.24,0.1,0.49,0.19,0.75,0.26C30.57,27.44,31.9,27.04,32.44,26.21
		z"/>
</g>
</svg>
