<?xml version="1.0" encoding="utf-8"?>
<!-- Generator: Adobe Illustrator 24.0.0, SVG Export Plug-In . SVG Version: 6.00 Build 0)  -->
<svg version="1.1" id="Layer_1" xmlns="http://www.w3.org/2000/svg" xmlns:xlink="http://www.w3.org/1999/xlink" x="0px" y="0px"
	 viewBox="0 0 58 74" style="enable-background:new 0 0 58 74;" xml:space="preserve">
<style type="text/css">
	.st0{fill:#2458A7;}
</style>
<g>
	<path class="st0" d="M-0.01,48.95c0.35-9.19,2.41-17.66,6.82-25.53c1.42-2.53,3.15-4.82,5.53-6.59c1.49-1.11,3.16-1.82,5.04-1.87
		c0.66-0.02,1.36,0.2,1.98,0.46c1.97,0.82,3.88,1.77,5.87,2.54c1.06,0.41,2.22,0.66,3.35,0.82c1.26,0.18,2.51-0.14,3.68-0.59
		c1.53-0.6,3.01-1.31,4.52-1.95c1.01-0.42,2-0.93,3.06-1.17c1.58-0.37,3.07,0.13,4.47,0.84c2.14,1.09,3.75,2.77,5.15,4.65
		c2.67,3.6,4.41,7.63,5.79,11.83c1.2,3.65,2.03,7.39,2.46,11.21c0.39,3.45,0.55,6.93-0.23,10.35c-0.24,1.03-0.61,2.07-1.12,3.01
		c-1.07,1.99-2.79,2.63-5.01,2.04c-2.05-0.55-3.7-1.75-5.29-3.05c-2.2-1.8-4.33-3.68-6.56-5.44c-2.28-1.8-4.77-3.29-7.69-3.85
		c-4.48-0.86-8.61,0.03-12.23,2.76c-1.5,1.13-2.81,2.51-4.19,3.79c-1.54,1.42-3,2.94-4.62,4.27c-1.51,1.23-3.33,1.82-5.33,1.89
		c-1.47,0.05-2.59-0.49-3.44-1.64c-1-1.36-1.43-2.94-1.66-4.56C0.14,51.67,0.09,50.17-0.01,48.95z M16.76,22.52
		c-1.66-0.02-3.14,0.49-4.45,1.45c-4.42,3.21-4.84,10.05-0.86,13.89c3.14,3.04,8.04,2.87,10.94-0.39c2.74-3.07,3.16-7.62,0.99-11.09
		C21.87,23.99,19.7,22.62,16.76,22.52z M43.22,25.42c-1.02-0.01-1.86,0.87-1.88,1.97c-0.02,1.08,0.83,2.02,1.82,2.03
		c1,0.01,1.86-0.89,1.88-1.98C45.07,26.36,44.23,25.44,43.22,25.42z M37.78,35.19c1.02,0,1.85-0.89,1.85-1.98
		c0-1.07-0.86-2.01-1.84-2.02c-0.98-0.01-1.84,0.93-1.86,2.01C35.92,34.29,36.75,35.19,37.78,35.19z M43.2,37
		c-1-0.01-1.86,0.91-1.86,1.99c0,1.08,0.85,2.01,1.84,2.02c0.98,0.01,1.85-0.93,1.86-2.01C45.06,37.94,44.2,37.01,43.2,37z
		 M48.48,35.19c1.04,0,1.84-0.85,1.85-1.98c0.01-1.07-0.85-2.02-1.84-2.02c-1,0-1.84,0.92-1.84,2.01
		C46.64,34.31,47.45,35.19,48.48,35.19z"/>
	<path class="st0" d="M21.05,31.28c-0.01,2.35-1.41,4.2-3.57,4.67c-1.23,0.26-2.34-0.07-3.3-0.84c-2.26-1.83-2.4-5.36-0.31-7.37
		c2.18-2.11,5.64-1.3,6.81,1.59c0.14,0.34,0.24,0.69,0.31,1.04C21.04,30.66,21.03,30.97,21.05,31.28z"/>
</g>
</svg>
