<?xml version="1.0" encoding="utf-8"?>
<!-- Generator: Adobe Illustrator 24.0.0, SVG Export Plug-In . SVG Version: 6.00 Build 0)  -->
<svg version="1.1" id="Layer_1" xmlns="http://www.w3.org/2000/svg" xmlns:xlink="http://www.w3.org/1999/xlink" x="0px" y="0px"
	 viewBox="0 0 50 50" style="enable-background:new 0 0 50 50;" xml:space="preserve">
<style type="text/css">
	.st0{fill:#FFFFFF;}
</style>
<g>
	<path class="st0" d="M9.93,0.05c10.06,0,20.08,0,30.15,0c0,16.63,0,33.25,0,49.89c-10.05,0-20.09,0-30.15,0
		C9.93,33.32,9.93,16.71,9.93,0.05z M11.05,48.58c9.33,0,18.61,0,27.91,0c0-15.74,0-31.44,0-47.17c-9.31,0-18.6,0-27.91,0
		C11.05,17.13,11.05,32.84,11.05,48.58z"/>
	<path class="st0" d="M13.9,6.63c7.41,0,14.79,0,22.21,0c0,10.83,0,21.66,0,32.53c-7.39,0-14.78,0-22.21,0
		C13.9,28.31,13.9,17.48,13.9,6.63z M15.03,7.99c0,9.96,0,19.89,0,29.82c6.68,0,13.32,0,19.97,0c0-9.96,0-19.87,0-29.82
		C28.33,7.99,21.68,7.99,15.03,7.99z"/>
	<path class="st0" d="M26.96,44.19c0,1.31-0.95,2.32-2.12,2.23c-0.1-0.01-0.2-0.02-0.3-0.05c-0.86-0.24-1.47-1.13-1.48-2.15
		c-0.01-1.03,0.58-1.93,1.43-2.19C25.73,41.65,26.95,42.72,26.96,44.19z M26.19,44.22c0.01-0.73-0.51-1.35-1.16-1.37
		c-0.67-0.02-1.23,0.6-1.23,1.35c0,0.74,0.53,1.33,1.19,1.34C25.65,45.54,26.18,44.96,26.19,44.22z"/>
	<path class="st0" d="M25.86,4.18c0.01,0.56-0.37,0.99-0.87,0.99c-0.47,0-0.86-0.43-0.87-0.95c-0.01-0.53,0.4-1,0.88-1
		C25.47,3.22,25.85,3.65,25.86,4.18z M24.99,4.6c0.14-0.17,0.31-0.3,0.29-0.38c-0.03-0.12-0.19-0.21-0.3-0.31
		c-0.09,0.1-0.25,0.19-0.25,0.29C24.72,4.31,24.86,4.42,24.99,4.6z"/>
</g>
</svg>
