<?xml version="1.0" encoding="utf-8"?>
<!-- Generator: Adobe Illustrator 24.0.0, SVG Export Plug-In . SVG Version: 6.00 Build 0)  -->
<svg version="1.1" id="Layer_1" xmlns="http://www.w3.org/2000/svg" xmlns:xlink="http://www.w3.org/1999/xlink" x="0px" y="0px"
	 viewBox="0 0 50 50" style="enable-background:new 0 0 50 50;" xml:space="preserve">
<style type="text/css">
	.st0{fill:#FFFFFF;}
</style>
<g>
	<path class="st0" d="M25,3.41c7.92,0,15.85,0,23.77,0c0.94,0,1.19,0.24,1.19,1.19c0,13.59,0,27.19,0,40.78
		c0,0.95-0.26,1.2-1.19,1.2c-15.85,0-31.69,0-47.54,0c-0.96,0-1.21-0.26-1.21-1.24c0-13.57,0-27.15,0-40.72
		c0-0.98,0.24-1.22,1.22-1.22C9.16,3.41,17.08,3.41,25,3.41z M1.67,44.81c15.59,0,31.11,0,46.64,0c0-9.11,0-18.18,0-27.25
		c-15.57,0-31.1,0-46.64,0C1.67,26.66,1.67,35.72,1.67,44.81z M48.32,5.16c-15.58,0-31.1,0-46.63,0c0,3.55,0,7.06,0,10.59
		c15.57,0,31.09,0,46.63,0C48.32,12.21,48.32,8.71,48.32,5.16z"/>
	<path class="st0" d="M17.66,10.44c0.01-0.88,0.66-1.56,1.48-1.55c0.82,0.01,1.45,0.72,1.44,1.59c-0.01,0.87-0.67,1.56-1.49,1.55
		C18.27,12.02,17.65,11.32,17.66,10.44z"/>
	<path class="st0" d="M14.86,10.44c0.01,0.86-0.65,1.58-1.46,1.59c-0.81,0.01-1.48-0.68-1.49-1.55c-0.01-0.87,0.64-1.58,1.45-1.59
		C14.17,8.88,14.84,9.58,14.86,10.44z"/>
	<path class="st0" d="M7.66,8.89C8.47,8.9,9.12,9.6,9.11,10.48c-0.01,0.87-0.67,1.56-1.48,1.56c-0.81-0.01-1.47-0.73-1.46-1.59
		C6.18,9.58,6.85,8.88,7.66,8.89z"/>
</g>
</svg>
