<?xml version="1.0" encoding="utf-8"?>
<!-- Generator: Adobe Illustrator 24.0.0, SVG Export Plug-In . SVG Version: 6.00 Build 0)  -->
<svg version="1.1" id="Layer_1" xmlns="http://www.w3.org/2000/svg" xmlns:xlink="http://www.w3.org/1999/xlink" x="0px" y="0px"
	 viewBox="0 0 50 50" style="enable-background:new 0 0 50 50;" xml:space="preserve">
<style type="text/css">
	.st0{fill:#FFFFFF;}
</style>
<path class="st0" d="M25,49.87c-0.39-0.47-0.77-0.93-1.14-1.39c-4.36-5.45-8.47-11.08-11.94-17.15c-1.32-2.32-2.48-4.71-3.45-7.2
	c-1.53-3.93-1.46-7.87-0.05-11.78c2.12-5.89,6.08-9.96,12.16-11.68c6.72-1.91,13.84,0.64,18.15,6.34c2.82,3.74,4.14,7.96,3.87,12.64
	c-0.12,2.11-0.86,4.08-1.68,6.01c-1.88,4.45-4.35,8.58-7.14,12.5c-2.74,3.86-5.66,7.6-8.5,11.39C25.21,49.65,25.12,49.74,25,49.87z
	 M25,47.63c0.12-0.13,0.21-0.22,0.29-0.32c3.06-3.83,5.97-7.77,8.64-11.88c2.3-3.53,4.46-7.15,6.03-11.08
	c0.73-1.83,1.34-3.7,1.33-5.7c-0.02-3.68-1.07-7.06-3.16-10.1c-3.95-5.75-11-8.36-17.51-6.37c-5.18,1.58-8.68,5.06-10.66,10.05
	c-1.54,3.88-1.72,7.82-0.03,11.73c0.74,1.72,1.49,3.44,2.37,5.08c3.27,6.1,7.3,11.69,11.55,17.14C24.21,46.66,24.6,47.13,25,47.63z"
	/>
<path class="st0" d="M33.24,18.66c-0.02,2.7-0.8,4.8-2.44,6.55c-3.25,3.48-8.51,3.41-11.73-0.14c-3.15-3.48-3.06-9.08,0.21-12.45
	c4.13-4.26,10.95-2.84,13.26,2.77c0.23,0.56,0.41,1.16,0.53,1.75C33.18,17.73,33.21,18.35,33.24,18.66z M31.85,18.76
	c-0.02-0.23-0.03-0.63-0.09-1.02c-0.07-0.42-0.17-0.85-0.31-1.26c-1.63-4.92-7.42-6.48-11.04-2.98c-2.83,2.73-3.03,7.46-0.44,10.42
	c1.62,1.85,3.66,2.69,6.09,2.28C29.47,25.61,31.87,22.53,31.85,18.76z"/>
</svg>
