<?xml version="1.0" encoding="utf-8"?>
<!-- Generator: Adobe Illustrator 24.0.0, SVG Export Plug-In . SVG Version: 6.00 Build 0)  -->
<svg version="1.1" id="Layer_1" xmlns="http://www.w3.org/2000/svg" xmlns:xlink="http://www.w3.org/1999/xlink" x="0px" y="0px"
	 viewBox="0 0 50 50" style="enable-background:new 0 0 50 50;" xml:space="preserve">
<style type="text/css">
	.st0{fill:#FFFFFF;}
</style>
<g>
	<path class="st0" d="M25,42.9c-7.7,0-15.4,0-23.2,0c-0.4,0-0.8-0.1-1.2-0.3C0.2,42.3,0,41.9,0,41.3c0-3.1,0-6.1,0-9.2
		c0-7.6,0-15.2,0-22.8C0,9,0,8.6,0,8.2c0-0.5,0.3-0.8,0.8-0.8c15.8,0,31.6,0,47.4,0c0.3,0,0.7,0,1,0c0.5,0,0.8,0.4,0.8,0.9
		c0,0.3,0,0.6,0,1c0,10.6,0,21.2,0,31.8c0,1.3-0.5,1.8-1.8,1.8C40.5,42.9,32.7,42.9,25,42.9z M2.1,10C2,10.4,2,10.7,2,11
		c0,9.5,0,18.9,0,28.4c0,0.1,0,0.3,0,0.4c0,0.7,0.5,1.3,1.2,1.4c0.2,0,0.5,0,0.7,0c14,0,28.1,0,42.1,0c0.2,0,0.4,0,0.6,0
		c0.8-0.1,1.3-0.7,1.3-1.5c0-9.6,0-19.3,0-28.9c0-0.2-0.1-0.4-0.1-0.7c-0.2,0.1-0.4,0.2-0.5,0.3c-5.2,3.5-10.4,6.9-15.6,10.4
		c-1.9,1.3-3.9,2.6-5.8,3.9c-0.4,0.3-0.8,0.6-1.3,0.4c-0.3-0.1-0.6-0.3-0.9-0.5c-7.1-4.7-14.2-9.5-21.3-14.2
		C2.5,10.3,2.3,10.2,2.1,10z M4,9.2c0.2,0.1,0.3,0.2,0.4,0.3c6.7,4.5,13.5,9,20.2,13.5c0.3,0.2,0.4,0.2,0.7,0
		c6.7-4.5,13.5-9,20.3-13.6c0.1-0.1,0.2-0.2,0.3-0.3C32,9.2,18.1,9.2,4,9.2z"/>
</g>
</svg>
