<?xml version="1.0" encoding="utf-8"?>
<!-- Generator: Adobe Illustrator 24.0.0, SVG Export Plug-In . SVG Version: 6.00 Build 0)  -->
<svg version="1.1" id="Layer_1" xmlns="http://www.w3.org/2000/svg" xmlns:xlink="http://www.w3.org/1999/xlink" x="0px" y="0px"
	 viewBox="0 0 58 74" style="enable-background:new 0 0 58 74;" xml:space="preserve">
<style type="text/css">
	.st0{fill:#2458A7;}
</style>
<g>
	<path class="st0" d="M41.2,23.24c0.89,1.52,1.79,3.05,2.68,4.57c0.05,0.09,0.08,0.19,0.16,0.37c-1.35,0.51-2.45,1.59-3.99,1.62
		c-0.36,0.01-0.75-0.1-1.08-0.25c-1.16-0.51-1.95-0.34-2.87,0.52c-0.86,0.8-1.87,1.35-3.09,1.38c-0.46,0.01-0.93,0.13-1.38,0.11
		c-0.37-0.02-0.74-0.19-1.11-0.3c0.49-0.33,1.06-0.52,1.25-0.9c0.22-0.45,0.2-1.07,0.14-1.6c-0.13-1.25,0.85-2.1,2.03-1.69
		c0.56,0.19,1.08,0.48,1.64,0.67c0.98,0.32,1.46,0.08,1.99-0.79c0.33-0.54,0.78-1,1.23-1.56c-0.71-1.75-5.69-5.54-7.89-5.9
		c-0.02,0.04-0.06,0.08-0.05,0.11c0.33,1.02,0,1.72-0.88,2.36c-1.12,0.82-1.59,2.11-1.92,3.42c-0.4,1.57-0.81,1.72-2.06,0.69
		c-0.34-0.28-0.73-0.55-0.98-0.9c-0.63-0.89-1.47-1.39-2.48-1.73c-0.63-0.21-1.23-0.56-1.81-0.89c-0.63-0.35-1.03-0.88-1.26-1.59
		c-0.69-2.09-1.14-2.33-3.06-1.37c-1.54,0.77-2.96,1.77-4.44,2.67c-0.11,0.06-0.22,0.12-0.33,0.17c0.03,0.05,0.07,0.11,0.1,0.16
		c0.68,0.06,1.36,0.1,2.04,0.2c0.87,0.12,1.75,0.26,2.61,0.45c0.96,0.21,1.61,0.87,2.18,1.64c0.67,0.89,1.36,1.76,2.11,2.73
		c-0.3,0.16-0.72,0.4-1.16,0.62c-1.3,0.65-1.32,0.78-0.1,1.58c0.49,0.32,0.63,0.73,0.67,1.27c0.04,0.65,0.1,1.3,0.26,1.92
		c0.31,1.18-0.17,2-1.37,2.16c-0.93,0.13-1.52,0.6-1.78,1.55c-0.18,0.64-0.47,1.27-0.79,1.86c-0.48,0.88-1.58,1.13-2.5,0.62
		c-0.89-0.5-2.43,0.23-2.51,1.24c-0.02,0.25,0.24,0.66,0.48,0.78c0.58,0.29,1.22,0.46,1.84,0.67c0.19,0.06,0.38,0.11,0.71,0.21
		c-1.23,0.49-2.32,0.95-3.42,1.35c-0.18,0.06-0.48-0.05-0.66-0.18c-0.98-0.72-1.45-1.78-1.64-2.92c-0.25-1.43-0.89-2.45-2.24-3.05
		c-0.39-0.17-0.67-0.62-0.98-0.96c-0.14-0.16-0.24-0.36-0.43-0.52c-0.29,1.55-0.19,3.09,0.12,4.58c0.3,1.48,0.78,2.92,1.22,4.52
		c-0.71,0.24-1.51,0.54-2.34,0.77c-0.11,0.03-0.41-0.27-0.46-0.46c-0.49-1.66-1.1-3.3-1.35-4.99c-0.25-1.75-0.28-3.56-0.15-5.32
		c0.19-2.54,0.89-4.98,2.03-7.27c3.24-6.49,8.41-10.61,15.5-12.04c6.65-1.34,12.76,0.15,18.12,4.36c1.25,0.99,2.32,2.21,3.47,3.32
		L41.2,23.24z"/>
	<path class="st0" d="M7.18,51.1c0.99-0.28,1.91-0.55,2.84-0.79c0.13-0.03,0.33,0.14,0.47,0.25c0.86,0.69,1.7,1.39,2.56,2.08
		c0.21,0.17,0.46,0.28,0.77,0.47c0.12-0.86,0.23-1.64,0.33-2.42c0.09-0.67,0.16-1.34,0.27-2c0.03-0.15,0.18-0.34,0.32-0.39
		c1.36-0.5,2.73-0.97,4.14-1.43c-0.55,0.42-0.65,0.93-0.56,1.6c0.06,0.43-0.22,0.93-0.44,1.36c-0.69,1.35-1.74,2.39-2.93,3.29
		c-0.14,0.11-0.29,0.23-0.54,0.43c0.69,0.34,1.27,0.66,1.88,0.93c2.11,0.92,4.3,1.44,6.61,1.54c1.72,0.08,3.41-0.06,5.1-0.4
		c0.51-0.1,0.65-0.32,0.68-0.85c0.05-1.18-0.3-2.24-0.88-3.2c-0.97-1.58-0.9-3.05,0.16-4.53c0.77-1.08,1.46-2.23,2.28-3.27
		c0.6-0.77,1.4-1.26,2.48-1.11c0.55,0.07,1.04-0.14,1.26-0.74c0.25-0.7,0.16-0.95-0.52-1.32c-0.09-0.05-0.17-0.11-0.33-0.21
		c0.65-0.34,1.25-0.65,1.84-0.96c0.67-0.36,1.34-0.72,2.01-1.08c0.54-0.29,1.03-0.7,1.71-0.23c0.22,0.15,0.66,0.07,0.97-0.03
		c0.48-0.15,0.96-0.35,1.38-0.62c0.32-0.2,0.63-0.51,0.81-0.84c0.48-0.84,0.88-1.73,1.33-2.58c0.07-0.14,0.22-0.26,0.37-0.33
		c0.57-0.31,1.16-0.6,1.89-0.97c0.68,4.33,0.39,8.47-1.24,12.47c-1.64,4.02-4.23,7.31-7.8,9.78C26.73,61.72,14.07,59.49,7.18,51.1z"
		/>
	<path class="st0" d="M1.94,44.67c-0.12,0.37-0.31,0.74-0.35,1.12c-0.08,0.64,0.18,0.88,0.82,1.06c0.99,0.28,1.9-0.07,2.8-0.33
		c10.14-2.91,19.98-6.55,29.06-12.04c0.98-0.59,1.92-1.24,2.86-1.89c0.35-0.25,0.66-0.33,1.03-0.07c0.08,0.06,0.2,0.08,0.28,0.14
		c0.31,0.23,0.88,0.16,0.85,0.77c-0.03,0.66-0.02,1.25-0.75,1.69c-6.42,3.95-12.94,7.7-19.82,10.78c-3.26,1.46-6.59,2.76-10.09,3.53
		c-1.47,0.33-3,0.49-4.51,0.58C2.7,50.1,1.5,49.5,0.54,48.48c-0.53-0.56-0.74-1.24-0.32-1.91c0.46-0.72,1.05-1.34,1.59-2.01
		C1.85,44.6,1.89,44.63,1.94,44.67z"/>
	<path class="st0" d="M41.22,23.27c-0.33-1.01,0.3-1.43,1.05-1.87c0.4-0.23,0.67-0.24,1.07-0.04c2.34,1.16,4.69,2.29,7.05,3.39
		c0.26,0.12,0.67,0.11,0.93-0.01c1.23-0.55,2.42-1.18,3.64-1.76c0.36-0.17,0.73-0.32,1.12-0.42c0.67-0.19,1.5,0.04,1.73,0.45
		c0.32,0.57,0.24,1.52-0.33,1.98c-0.87,0.69-1.8,1.3-2.74,1.9c-0.59,0.37-1.24,0.63-1.84,0.97c-0.16,0.09-0.36,0.27-0.38,0.43
		c-0.15,1.44-0.27,2.89-0.4,4.33c-0.11,1.19-0.23,2.39-0.38,3.57c-0.03,0.2-0.22,0.44-0.4,0.56c-0.51,0.32-1.05,0.58-1.7,0.94
		c0.2-0.63,0.13-1.02-0.36-1.05c-0.25-2.09-0.5-4.12-0.74-6.16c-0.04-0.37-0.23-0.41-0.52-0.27c-1.74,0.89-3.52,1.73-5.21,2.71
		c-0.42,0.24-0.68,0.91-0.82,1.44c-0.32,1.24-1.29,1.79-2.34,2.42c0.05-0.72,0.09-1.37,0.14-2.03c0.05-0.61,0.15-1.21,0.16-1.82
		c0-0.14-0.22-0.33-0.38-0.43c-0.96-0.55-1.94-1.08-2.92-1.63c0.84-1,1.65-1.32,2.73-0.82c1.13,0.52,2.02,0.32,3.03-0.3
		c1.25-0.78,2.59-1.4,3.89-2.1c0.16-0.09,0.31-0.19,0.68-0.43c-0.49-0.41-0.91-0.75-1.32-1.11c-0.83-0.75-1.7-1.46-2.47-2.28
		c-0.57-0.61-1.16-0.86-1.95-0.61C41.2,23.24,41.22,23.27,41.22,23.27z"/>
	<path class="st0" d="M21.98,45.87c-0.49,1.12-1.59,0.47-2.4,0.68c0.76-0.3,1.53-0.6,2.29-0.9C21.91,45.73,21.94,45.8,21.98,45.87z"
		/>
	<path class="st0" d="M26.95,31.19c-0.34,0.13-0.67,0.29-1.03,0.36c-0.11,0.02-0.28-0.18-0.42-0.28c0.29-0.2,0.57-0.44,0.89-0.57
		c0.13-0.05,0.36,0.15,0.55,0.24C26.95,31.03,26.95,31.11,26.95,31.19z"/>
	<path class="st0" d="M22.29,34.73c0.21,0.15,0.36,0.26,0.52,0.37c-0.14,0.14-0.29,0.29-0.44,0.43c-0.02,0.02-0.08,0.01-0.12,0.01
		c-0.26,0-0.51,0.01-0.76,0c-0.02,0-0.07-0.3-0.02-0.33C21.71,35.03,21.98,34.9,22.29,34.73z"/>
</g>
</svg>
